<svg width="64" height="64" viewBox="0 0 64 64" fill="none" xmlns="http://www.w3.org/2000/svg">
<path d="M15.6995 32.4698C16.0046 32.4545 16.3224 32.4266 16.5952 32.5946C17.5008 33.1522 20.1102 35.9656 21.0861 36.9113C21.765 36.9082 23.2614 36.7993 23.8322 37.0519C25.0566 37.5939 24.8883 39.191 23.554 39.6493C22.3902 39.6076 21.0257 39.7781 19.8936 39.6082C19.373 39.53 18.8314 38.8188 18.4865 38.4651L15.8234 35.7949C15.4398 35.4114 15.0313 35.0361 14.7107 34.5969C14.5325 33.5413 14.5705 32.7919 15.6995 32.4698Z" fill="#0B2027" fill-opacity="0.8"/>
<path d="M20.8688 8.74422L27.0792 8.74354C28.4575 8.74346 29.869 8.67908 31.2413 8.80719C37.0127 9.34596 41.8337 14.2015 42.1618 20.0288C42.2913 22.3279 40.113 22.3697 39.4911 21.1854C39.2337 20.6954 39.2777 19.962 39.2089 19.413C38.6509 14.967 34.4448 11.6084 30.0474 11.5744C28.1037 11.5594 26.1565 11.5894 24.2123 11.5881C21.2161 11.5861 18.8158 11.3235 16.1091 12.9294C15.3556 13.3764 15.0603 13.4955 14.6512 14.2049C14.6346 14.2336 14.4548 14.2467 14.4162 14.2622C14.3313 14.2963 14.2478 14.3971 14.1826 14.4617C11.8446 16.7797 11.642 19.279 11.6449 22.3282L11.6458 35.4455C11.6461 36.2045 11.6034 36.9871 11.6844 37.7419C12.105 41.6541 15.5893 45.097 19.4787 45.579C20.4213 45.6957 21.3917 45.6521 22.3407 45.6517L26.3158 45.6511C26.6062 46.7184 26.9182 47.4963 27.3205 48.5177C24.7961 48.4623 21.4721 48.7401 19.0464 48.3971C13.4222 47.6018 8.78406 42.6078 8.73214 36.8715L8.73111 22.7638C8.73124 21.6866 8.69892 20.5918 8.81459 19.5195C9.47867 13.3634 14.7025 8.77805 20.8688 8.74422Z" fill="#0B2027" fill-opacity="0.8"/>
<path d="M41.6105 27.8152L41.6664 27.8123C45.8573 27.6098 49.9612 29.7497 52.4983 33.0339C59.1084 41.5899 53.2229 54.2307 42.1706 54.6536C34.8831 54.954 28.514 48.7733 28.4325 41.5156C28.3497 34.1275 34.1051 27.8903 41.6105 27.8152ZM41.2589 30.6743C40.4091 30.7914 39.5595 30.9212 38.7372 31.1718C33.1459 32.8761 30.1443 39.0072 32.0234 44.5262C33.5902 49.1277 37.6877 51.7733 42.5207 51.6052C48.4469 50.9403 52.9055 46.0492 52.1965 39.9579C51.5737 34.6086 46.7094 30.2885 41.2589 30.6743Z" fill="#00C08B"/>
<path d="M41.8869 34.9666C43.5829 34.9695 43.4914 36.4266 43.4918 37.6925C43.4919 38.3776 43.5037 39.0629 43.4923 39.7479L45.9156 39.748C46.4214 39.7475 46.997 39.6883 47.4918 39.7998C48.6312 40.0565 49.1146 41.494 48.2896 42.342C47.6857 42.9628 46.7619 42.8188 45.9804 42.8184L43.4923 42.8178L43.4946 45.0036C43.4958 46.311 43.5005 47.3752 42.0191 47.7333C40.2722 47.7671 40.3637 46.4845 40.3642 45.1299L40.3645 42.8178L37.8878 42.818C37.1082 42.8227 36.2009 42.9984 35.5765 42.4124C34.9785 41.8514 34.9888 40.7434 35.5685 40.1733C36.1621 39.5893 37.1222 39.7472 37.8764 39.7474L40.3645 39.7479L40.3638 37.7435C40.3524 36.44 40.2375 35.1307 41.8869 34.9666Z" fill="#00C08B"/>
</svg>
